<?xml version="1.0" encoding="UTF-8"?><svg id="uuid-350c28f5-1d64-4bef-8d94-4e74b8ab4b65" xmlns="http://www.w3.org/2000/svg" xmlns:xlink="http://www.w3.org/1999/xlink" viewBox="0 0 348.44 349.28"><defs><linearGradient id="uuid-43fa10c0-d661-4830-86d8-8fee27c0da6f" x1="-122.74" y1="589.17" x2="-119.96" y2="592.21" gradientTransform="translate(10465.48 36168.67) scale(84.83 -61)" gradientUnits="userSpaceOnUse"><stop offset="0" stop-color="#007ed5"/><stop offset="1" stop-color="#02edcf"/></linearGradient><linearGradient id="uuid-feb3d3c1-8497-4241-88c4-ed86263aa07d" x1="-120.44" y1="590.04" x2="-122.94" y2="585.83" gradientTransform="translate(9668.39 31849.02) scale(78.32 -53.7)" gradientUnits="userSpaceOnUse"><stop offset="0" stop-color="#7461f9"/><stop offset=".99" stop-color="#80c7ff"/><stop offset="1" stop-color="#ffffd2"/></linearGradient></defs><g id="uuid-f2acf0f5-a450-4d9e-a78a-deeadc8adab9"><g id="uuid-b96fdf88-5873-4c0f-aa08-b5f757f750b5"><path d="m174.04,0c93.36,0,169.63,73.3,174.4,165.48-.43,7.23-4.23,13.55-9.84,17.43l-52.39,29.06c-9.5,4.06-24.03,1.75-33.38-5.57l-18.1-14.15,70.47-39.07c-10.26-63.18-65.08-111.43-131.15-111.43-69.59,0-126.69,53.52-132.41,121.62-1.36,10.23-10.12,18.12-20.73,18.12-11.54,0-20.91-9.36-20.91-20.91v-.49s0-.03,0-.03v-.02C7.42,70.45,82.51,0,174.04,0Zm-23.29,248.76l87.6-48.56-18.1-14.16c-9.96-7.78-25.78-9.9-35.15-4.7l-56.28,31.19c-4.88,3.91-8.01,9.93-8.01,16.67,0,11.79,9.56,21.35,21.35,21.35,3.06,0,5.96-.64,8.59-1.8h0Z" style="fill:url(#uuid-43fa10c0-d661-4830-86d8-8fee27c0da6f); stroke-width:0px;"/><path d="m330.87,251.52c-28.44,57.9-87.98,97.76-156.83,97.76-73.75,0-136.84-45.74-162.44-110.4l.06-.03c-1.41-2.99-2.2-6.33-2.2-9.86,0-8.07,4.13-15.18,10.38-19.33l4.29-2.38,137.73-76.41c2.69-1.38,5.74-2.15,8.98-2.15,10.92,0,19.77,8.85,19.77,19.77,0,6.24-2.89,11.81-7.4,15.43l-80.07,44.42-38.18,21.18c-3.18,1.76-6.6,3.09-10.08,3.99,21.71,43.85,66.92,74.01,119.15,74.01s96.12-29.29,118.18-72.11c4.62-6.46,12.66-10.09,21.02-8.69,11.7,1.96,19.59,13.03,17.63,24.73v.06h0Z" style="fill:url(#uuid-feb3d3c1-8497-4241-88c4-ed86263aa07d); stroke-width:0px;"/></g></g></svg>