<?xml version="1.0" encoding="UTF-8"?><svg id="uuid-736abd70-2ed4-46ac-85c3-d841e18fa302" xmlns="http://www.w3.org/2000/svg" xmlns:xlink="http://www.w3.org/1999/xlink" viewBox="0 0 315.2 67.2"><defs><linearGradient id="uuid-11581159-1b53-48f9-aba5-b91677c34a84" x1="-380.2" y1="-128.99" x2="-378.76" y2="-130.56" gradientTransform="translate(12050.31 2981.08) scale(31.67 22.77)" gradientUnits="userSpaceOnUse"><stop offset="0" stop-color="#007ed5"/><stop offset="1" stop-color="#02edcf"/></linearGradient><linearGradient id="uuid-55a09ccd-4ce8-4483-a2c7-80e80f3936eb" x1="-378.35" y1="-129.17" x2="-379.64" y2="-127" gradientTransform="translate(11107.71 2620.92) scale(29.24 20.04)" gradientUnits="userSpaceOnUse"><stop offset="0" stop-color="#7461f9"/><stop offset=".99" stop-color="#80c7ff"/><stop offset="1" stop-color="#ffffd2"/></linearGradient><linearGradient id="uuid-387d1639-0329-404f-9b22-524035047878" x1="-384.17" y1="-128.68" x2="-385.46" y2="-126.52" gradientTransform="translate(42706.94 2347.92) scale(110.52 18.08)" xlink:href="#uuid-55a09ccd-4ce8-4483-a2c7-80e80f3936eb"/></defs><g id="uuid-3cdd22a8-1400-4c4b-8e42-eeb5ebd37509"><g id="uuid-7530b213-14b9-4607-a651-95137222e92b"><path d="M33.6,0c17.9,0,32.6,14.1,33.5,31.8-.1,1.4-.8,2.6-1.9,3.4l-10.1,5.6c-1.8.8-4.6.3-6.4-1.1l-3.5-2.7,13.5-7.5c-2-12.1-12.5-21.4-25.2-21.4-13.4,0-24.4,10.3-25.5,23.4-.3,2-1.9,3.5-4,3.5s-4-1.8-4-4v-.1h0C1.6,13.6,16,0,33.6,0h0ZM29.1,47.8l16.8-9.3-3.5-2.7c-1.9-1.5-5-1.9-6.8-.9l-10.8,6c-.9.8-1.5,1.9-1.5,3.2,0,2.3,1.8,4.1,4.1,4.1.7,0,1.2-.1,1.7-.4Z" style="fill:url(#uuid-11581159-1b53-48f9-aba5-b91677c34a84);"/><path d="M63.8,48.4c-5.5,11.1-16.9,18.8-30.2,18.8-14.2,0-26.3-8.8-31.2-21.2h0c-.3-.6-.4-1.2-.4-1.9,0-1.5.8-2.9,2-3.7l.8-.5,26.5-14.7c.5-.3,1.1-.4,1.7-.4,2.1,0,3.8,1.7,3.8,3.8,0,1.2-.6,2.3-1.4,3l-15.4,8.5-7.3,4.1c-.6.3-1.3.6-1.9.8,4.2,8.4,12.9,14.2,22.9,14.2s18.5-5.6,22.7-13.9c.9-1.2,2.4-1.9,4-1.7,2.2.4,3.7,2.5,3.4,4.8h0Z" style="fill:url(#uuid-55a09ccd-4ce8-4483-a2c7-80e80f3936eb);"/><path d="M81.5,22.9c0-1.6.4-3,1.3-4.3.9-1.3,2.1-2.4,3.6-3.2s3.2-1.2,5-1.2h22.1c1.8,0,3.5.4,5,1.2s2.7,1.8,3.6,3.2c.9,1.3,1.3,2.8,1.3,4.3v20.9c0,1.6-.4,3-1.3,4.4-.9,1.4-2.1,2.4-3.6,3.2-1.5.8-3.2,1.2-5,1.2h-22.1c-1.8,0-3.4-.4-5-1.2-1.5-.8-2.7-1.9-3.6-3.2-.9-1.3-1.3-2.8-1.3-4.3v-21ZM108.2,46.5c1.4,0,2.6-.4,3.6-1.3s1.5-1.9,1.5-3.1v-17.3c0-1.3-.5-2.3-1.5-3.2s-2.2-1.3-3.6-1.3h-11.4c-1.4,0-2.7.4-3.7,1.3-1,.9-1.5,1.9-1.5,3.2v17.3c0,1.2.5,2.3,1.5,3.1,1,.9,2.2,1.3,3.7,1.3h11.4ZM147.5,20.2c-1.4,0-2.8.3-4.1.9s-2.3,1.5-3,2.6-1.1,2.3-1.1,3.6v3.1h31.9v5.9h-31.9v3.1c0,1.3.4,2.5,1.1,3.6.7,1.1,1.7,2,3,2.6s2.6.9,4.1.9h23.7v6h-27.1c-2.7,0-5.2-.6-7.5-1.8-2.3-1.2-4.1-2.8-5.5-4.8-1.3-2-2-4.2-2-6.6v-12.1c0-2.4.7-4.6,2-6.6s3.2-3.6,5.5-4.8,4.8-1.8,7.5-1.8h27.1v5.9h-23.7v.3ZM212.9,52.5l-14-29-11.2,23.1h12.6l3.2,5.9h-28.8l18.6-38.3h11.3l18.6,38.3h-10.3ZM255.3,30.1c2.3,0,4.4.5,6.4,1.5s3.5,2.4,4.7,4.1c1.1,1.7,1.7,3.6,1.7,5.6s-.6,3.9-1.7,5.6-2.7,3.1-4.7,4.1-4.1,1.5-6.4,1.5h-27.6v-6h24.1c1.7,0,3.1-.5,4.2-1.5,1.2-1,1.8-2.2,1.8-3.7s-.6-2.7-1.8-3.7c-1.2-1-2.6-1.5-4.2-1.5h-13.3c-2.3,0-4.4-.5-6.3-1.5s-3.4-2.3-4.6-4c-1.1-1.7-1.7-3.5-1.7-5.5s.6-3.8,1.7-5.5,2.6-3,4.6-4c1.9-1,4-1.5,6.3-1.5h27v5.9h-23.6c-1.6,0-2.9.5-4.1,1.5-1.1,1-1.7,2.2-1.7,3.5,0,1.4.6,2.5,1.7,3.5s2.5,1.4,4.1,1.4h13.4v.2ZM291.5,20.2c-1.4,0-2.8.3-4.1.9-1.3.6-2.3,1.5-3,2.6s-1.1,2.3-1.1,3.6v3.1h31.9v5.9h-31.9v3.1c0,1.3.4,2.5,1.1,3.6s1.7,2,3,2.6,2.6.9,4.1.9h23.7v6h-27.1c-2.7,0-5.2-.6-7.5-1.8-2.3-1.2-4.1-2.8-5.5-4.8-1.3-2-2-4.2-2-6.6v-12.1c0-2.4.7-4.6,2-6.6s3.2-3.6,5.5-4.8,4.8-1.8,7.5-1.8h27.1v5.9h-23.7v.3Z" style="fill:url(#uuid-387d1639-0329-404f-9b22-524035047878);"/></g></g></svg>